# xmcd
#
# Track frame offsets:
#	150
#	13607
#	31031
#	44532
#	61846
#	77493
#	92084
#	102803
#	120391
#	135022
#	147640
#	160390
#	172711
#
# Disc length: 2347 seconds
#
# Revision: 0
# Processed by: cddbd v1.5.2PL0 Copyright (c) Steve Scherf et al.
# Submitted via: audiograbber 1.83.01
#
DISCID=9309290d
DTITLE=Bob Wayne - 13 Truckin' Songs
DYEAR=2006
DGENRE=Country
TTITLE0=Mack
TTITLE1=Mornin' Time
TTITLE2=Devils Son
TTITLE3=Showdown
TTITLE4=Chatterbox
TTITLE5=Left Behind
TTITLE6=Long Way Down
TTITLE7=The Laugh
TTITLE8=100K
TTITLE9=Movin' Out
TTITLE10=1985
TTITLE11=One for the Ladies
TTITLE12=Neath the Stone
EXTD=
EXTT0=
EXTT1=
EXTT2=
EXTT3=
EXTT4=
EXTT5=
EXTT6=
EXTT7=
EXTT8=
EXTT9=
EXTT10=
EXTT11=
EXTT12=
PLAYORDER=
